<?xml version="1.0" encoding="UTF-8" standalone="no"?>
<!-- Created with Inkscape (http://www.inkscape.org/) -->

<svg
   width="23.999994"
   height="24.000004"
   viewBox="0 0 6.3499986 6.3500011"
   version="1.1"
   id="svg1"
   xml:space="preserve"
   sodipodi:docname="icon.svg"
   inkscape:version="1.4.2 (ebf0e940, 2025-05-08)"
   inkscape:export-filename="icon-lg.svg"
   inkscape:export-xdpi="96"
   inkscape:export-ydpi="96"
   xmlns:inkscape="http://www.inkscape.org/namespaces/inkscape"
   xmlns:sodipodi="http://sodipodi.sourceforge.net/DTD/sodipodi-0.dtd"
   xmlns="http://www.w3.org/2000/svg"
   xmlns:svg="http://www.w3.org/2000/svg"><sodipodi:namedview
     id="namedview1"
     pagecolor="#ffffff"
     bordercolor="#000000"
     borderopacity="0.25"
     inkscape:showpageshadow="2"
     inkscape:pageopacity="0.0"
     inkscape:pagecheckerboard="0"
     inkscape:deskcolor="#d1d1d1"
     inkscape:document-units="px"
     inkscape:zoom="9.7583124"
     inkscape:cx="11.272441"
     inkscape:cy="5.7386972"
     inkscape:window-width="1320"
     inkscape:window-height="719"
     inkscape:window-x="0"
     inkscape:window-y="25"
     inkscape:window-maximized="0"
     inkscape:current-layer="layer1" /><defs
     id="defs1" /><g
     id="layer1"
     style="display:inline"
     transform="matrix(0.01744203,0,0,0.01744701,13.854155,3.5647664)"><path
       style="fill:#000000;stroke:none;fill-opacity:1"
       d="m -617.60526,-204.09814 c -13.81494,1.81372 -27.27957,2.21964 -40.92222,5.80667 -39.22608,10.31367 -74.22837,33.76786 -98.8186,66.01027 -13.13472,17.22207 -22.89294,36.833512 -29.24844,57.502772 -19.22678,62.529063 -1.61568,132.119065 43.41426,179.211108 15.64477,16.36121 34.82444,29.61585 55.37222,39.04947 31.62109,14.51737 66.92692,18.98631 101.24722,14.47341 89.54029,-11.77409 158.47753,-93.797723 156.27538,-183.697878 -1.9196,-78.366402 -54.46872,-147.693892 -129.46427,-170.753142 -14.57617,-4.48181 -29.92928,-7.03182 -45.15555,-7.4048 -4.21288,-0.10318 -8.47515,-0.75254 -12.7,-0.19788 m 67.73333,185.058605 c 4.5742,-1.08398 9.00494,-3.310593 13.40556,-4.956593 1.47404,-0.55134 3.66284,-1.96681 5.27616,-1.4514 2.84569,0.90914 4.48332,8.755523 5.44273,11.346883 0.43133,1.16498 0.90242,2.65487 0.004,3.73302 -1.01004,1.2125404 -3.29553,1.7114304 -4.72602,2.2465004 -3.82641,1.43122 -7.6572,3.32876 -11.64167,4.25103 1.0266,3.56372002 3.2351,6.89777 4.8477,10.23056 3.23986,6.6957996 6.37646,13.4546896 9.70329,20.1083296 1.37377,2.74753 5.59571,8.50814 5.01457,11.62642 -0.26446,1.41904 -1.84644,1.99966 -2.985,2.57181 -2.2604,1.13585 -9.56096,6.19042 -11.76961,3.99187 -3.22627,-3.21152 -5.14648,-9.84061 -7.0365,-13.95677 -4.35546,-9.48542 -9.64048,-18.58043 -13.64945,-28.2222196 -35.61369,12.0482096 -70.26267,27.3790796 -105.48055,40.5517396 -8.37255,3.13164 -16.72722,6.34555 -25.04722,9.6143 -1.96993,0.77394 -6.74736,3.651582 -8.53091,1.58015 -3.14387,-3.65134 0.81077,-8.75192 2.33062,-12.23508 4.82647,-11.06117 10.73824,-21.66241 15.37251,-32.8083296 -4.21574,1.8686996 -8.70903,3.2790396 -13.05278,4.8302796 -1.48101,0.52891 -3.69887,1.91461 -5.21626,0.89092 -2.02088,-1.36337 -2.70738,-5.6585896 -3.5354,-7.8378696 -0.62723,-1.65082 -2.06826,-4.1924 -1.70428,-5.99067 0.32311,-1.59632998 2.08216,-2.04186998 3.40039,-2.54378 3.39342,-1.29204 6.8355,-2.45501 10.23055,-3.74499 4.56257,-1.73357 9.17431,-3.34889 13.75834,-5.0254404 1.92198,-0.70295 4.68469,-1.21216 6.21226,-2.6268 2.38188,-2.20583 3.58538,-6.80811 4.98544,-9.701653 13.46881,-27.83626 25.76509,-56.26194 39.51492,-83.961112 3.27898,-6.60554 6.5134,-13.34927 9.46266,-20.10833 0.86136,-1.97406 2.08467,-6.32808 4.39829,-6.94342 1.50503,-0.40027 4.31554,-0.41856 5.49146,0.70556 2.19849,2.10166 3.45188,6.31598 4.67485,9.06008 2.2769,5.10895 4.8742,10.16452 7.37024,15.16945 9.4005,18.849512 18.27175,37.959002 27.69086,56.797222 3.62236,7.24475 7.06022,14.58252 10.58742,21.87222 1.72186,3.55859 4.10457,7.13175 5.20048,10.936113 m -58.91389,-82.197225 -8.35778,17.991662 -18.19174,38.80556 -6.69869,14.11111 -4.14623,9.525 43.03889,-15.85622 21.87222,-8.13267 c -1.4127,-4.90582 -4.35245,-9.55299 -6.6154,-14.11111 -3.83431,-7.72321 -7.43211,-15.56923 -11.28917,-23.28333 -3.00628,-6.01258 -5.31888,-13.86853 -9.6121,-19.050002 m -59.97222,128.058335 30.33889,-11.49196 73.025,-28.01915 -8.11389,-16.933343 -59.97222,21.9400134 -15.52222,5.68527 -7.61358,3.21393 -4.13697,8.31913 z"
       id="path25105" /></g></svg>
