<svg width="24" height="24" viewBox="0 0 24 24" fill="none" xmlns="http://www.w3.org/2000/svg">
<path d="M2.60007 10.5899L8.38007 4.79995L10.0701 6.49995C9.83007 7.34995 10.2201 8.27995 11.0001 8.72995V14.2699C10.4001 14.6099 10.0001 15.2599 10.0001 15.9999C10.0001 16.5304 10.2108 17.0391 10.5859 17.4142C10.9609 17.7892 11.4696 17.9999 12.0001 17.9999C12.5305 17.9999 13.0392 17.7892 13.4143 17.4142C13.7894 17.0391 14.0001 16.5304 14.0001 15.9999C14.0001 15.2599 13.6001 14.6099 13.0001 14.2699V9.40995L15.0701 11.4999C15.0001 11.6499 15.0001 11.8199 15.0001 11.9999C15.0001 12.5304 15.2108 13.0391 15.5859 13.4142C15.9609 13.7892 16.4696 13.9999 17.0001 13.9999C17.5305 13.9999 18.0392 13.7892 18.4143 13.4142C18.7894 13.0391 19.0001 12.5304 19.0001 11.9999C19.0001 11.4695 18.7894 10.9608 18.4143 10.5857C18.0392 10.2107 17.5305 9.99995 17.0001 9.99995C16.8201 9.99995 16.6501 9.99995 16.5001 10.0699L13.9301 7.49995C14.1901 6.56995 13.7101 5.54995 12.7801 5.15995C12.3501 4.99995 11.9001 4.95995 11.5001 5.06995L9.80007 3.37995L10.5901 2.59995C11.3701 1.80995 12.6301 1.80995 13.4101 2.59995L21.4001 10.5899C22.1901 11.3699 22.1901 12.6299 21.4001 13.4099L13.4101 21.3999C12.6301 22.1899 11.3701 22.1899 10.5901 21.3999L2.60007 13.4099C1.81007 12.6299 1.81007 11.3699 2.60007 10.5899Z" fill="black"/>
</svg>
