<svg fill="none" version="1.1" viewBox="0 0 24 24" xmlns="http://www.w3.org/2000/svg">
    <g transform="translate(29.07 -.3244)">
        <path d="m-17.02 2.705c-4.01 2e-7 -7.283 3.273-7.283 7.283 0 0.00524-1.1e-5 0.01038 0 0.01562l-1.85 1.068v5.613l9.105 5.26 9.104-5.26v-5.613l-1.797-1.037c1.008e-4 -0.01573 0.00195-0.03112 0.00195-0.04688-1e-7 -4.01-3.271-7.283-7.281-7.283zm0 2.012c2.923 1e-7 5.27 2.349 5.27 5.271 0 2.923-2.347 5.27-5.27 5.27-2.923-1e-6 -5.271-2.347-5.271-5.27 0-2.923 2.349-5.271 5.271-5.271z" fill="#000" fill-rule="evenodd" stroke-linejoin="bevel"/>
    </g>
</svg>
