<svg width="24" height="24" viewBox="0 0 24 24" fill="none" xmlns="http://www.w3.org/2000/svg">
<g clip-path="url(#clip0_51106_4974)">
<path d="M12.018 6.53699C9.518 6.53699 7.418 8.24899 6.777 10.552C6.217 9.31999 4.984 8.44699 3.552 8.44699C2.61116 8.45146 1.71014 8.82726 1.04495 9.49264C0.379754 10.158 0.00420727 11.0591 0 12C0.00420727 12.9408 0.379754 13.842 1.04495 14.5073C1.71014 15.1727 2.61116 15.5485 3.552 15.553C4.984 15.553 6.216 14.679 6.776 13.447C7.417 15.751 9.518 17.463 12.018 17.463C14.505 17.463 16.594 15.77 17.249 13.486C17.818 14.696 19.032 15.553 20.447 15.553C21.3881 15.549 22.2895 15.1734 22.955 14.508C23.6205 13.8425 23.9961 12.9411 24 12C23.9958 11.059 23.6201 10.1577 22.9547 9.49229C22.2893 8.82688 21.388 8.4512 20.447 8.44699C19.031 8.44699 17.817 9.30499 17.248 10.514C16.594 8.22999 14.505 6.53599 12.018 6.53699ZM12.018 8.62199C13.896 8.62199 15.396 10.122 15.396 12C15.396 13.878 13.896 15.378 12.018 15.378C11.5739 15.38 11.1338 15.2939 10.7231 15.1249C10.3124 14.9558 9.93931 14.707 9.62532 14.393C9.31132 14.0789 9.06267 13.7057 8.89373 13.295C8.72478 12.8842 8.63888 12.4441 8.641 12C8.641 10.122 10.141 8.62199 12.018 8.62199ZM3.552 10.532C4.374 10.532 5.019 11.177 5.019 12C5.019 12.823 4.375 13.467 3.552 13.468C3.35871 13.47 3.16696 13.4334 2.988 13.3603C2.80905 13.2872 2.64648 13.1792 2.50984 13.0424C2.3732 12.9057 2.26524 12.7431 2.19229 12.5641C2.11934 12.3851 2.08286 12.1933 2.085 12C2.085 11.177 2.729 10.533 3.552 10.533V10.532ZM20.447 10.532C21.27 10.532 21.915 11.177 21.915 12C21.915 12.823 21.27 13.468 20.447 13.468C20.2537 13.47 20.062 13.4334 19.883 13.3603C19.704 13.2872 19.5415 13.1792 19.4048 13.0424C19.2682 12.9057 19.1602 12.7431 19.0873 12.5641C19.0143 12.3851 18.9779 12.1933 18.98 12C18.98 11.177 19.624 10.533 20.447 10.533V10.532Z" fill="black"/>
</g>
<defs>
<clipPath id="clip0_51106_4974">
<rect width="24" height="24" fill="white"/>
</clipPath>
</defs>
</svg>
