<svg width="400" height="400" viewBox="0 0 400 400" fill="none" xmlns="http://www.w3.org/2000/svg">
<path fill-rule="evenodd" clip-rule="evenodd" d="M154.671 33.7001C128.787 33.0539 102.567 50.1899 96.0259 75.8328C94.5022 82.0493 93.8808 87.9428 93.771 93.9464C93.771 116.214 93.771 138.482 93.771 160.75C102.521 160.75 111.271 160.75 120.021 160.75C120.114 137.249 119.888 113.874 120.2 90.3245C121.007 75.3692 132.562 59.6034 148.601 59.7859C148.718 83.5881 148.36 107.405 148.79 131.197C150.158 150.545 168.49 166.558 187.895 164.917C200.018 164.623 212.232 165.624 224.275 164.156C242.614 160.718 255.306 142.041 253.601 123.784C253.601 102.484 253.601 81.1844 253.601 59.8844C270.283 58.6661 282.935 74.8609 283.675 90.4229C283.985 113.971 283.762 137.35 283.854 160.849C292.604 160.849 301.354 160.849 310.104 160.849C310.104 137.224 310.104 113.598 310.104 89.9735C309.245 82.3336 308.033 72.9843 303.893 65.6151C293.153 43.8263 268.032 32.0698 244.34 33.8408C237.419 32.9618 229.974 37.6415 228.079 44.2007C228.193 72.2761 228.274 100.361 228.063 128.432C227.272 140.191 215.683 149.184 204.117 147.691C195.936 148.046 186.694 147.705 181.114 140.675C173.593 132.726 176.112 121.349 175.671 111.473C175.691 88.6677 175.596 65.8833 175.802 43.1172C172.38 36.1964 164.774 32.624 157.239 33.7597L155.992 33.7425L154.671 33.7001Z" fill="black" stroke="white" stroke-width="1.05"/>
<path fill-rule="evenodd" clip-rule="evenodd" d="M299.59 329.324C298.856 329.316 296.114 328.72 295.452 329.148C295.452 329.148 294.365 332.316 290.618 335.104C287.329 337.552 284.205 339.899 280.859 342.1C277.854 344.077 274.629 346.214 271.608 347.668C269.231 348.812 267.289 348.978 267.289 348.978H233.458C231.345 348.978 229.613 350.645 229.613 352.719V353.638C229.613 355.712 231.345 357.411 233.458 357.411H269.032C269.85 357.411 272.809 356.55 274.568 355.778C278.953 353.854 281.812 351.404 286.863 348.399C292.233 344.964 302.164 336.969 302.164 336.969C303.928 335.826 304.399 333.515 303.234 331.785L302.733 330.997C302.005 329.915 300.813 329.336 299.59 329.324Z" fill="black" stroke="white" stroke-width="1.05"/>
<path opacity="0.9666" fill-rule="evenodd" clip-rule="evenodd" d="M297.307 156.369V334.213C332.435 330.359 360.045 292.025 360.045 245.291C360.045 198.557 332.435 160.222 297.307 156.369Z" fill="black" stroke="white" stroke-width="1.05"/>
<path opacity="0.9666" fill-rule="evenodd" clip-rule="evenodd" d="M106.179 157.314V335.158C71.0511 331.304 43.4417 292.969 43.4417 246.236C43.4417 199.502 71.0511 161.167 106.179 157.314Z" fill="black" stroke="white" stroke-width="1.05"/>
<path opacity="0.9666" fill-rule="evenodd" clip-rule="evenodd" d="M233.639 352.008C233.639 356.464 230.597 360.737 225.182 363.888C219.767 367.038 212.422 368.808 204.764 368.808C197.106 368.808 189.762 367.038 184.347 363.888C178.931 360.737 175.889 356.464 175.889 352.008C175.889 347.553 178.931 343.28 184.347 340.129C189.762 336.978 197.106 335.208 204.764 335.208C212.422 335.208 219.767 336.978 225.182 340.129C230.597 343.28 233.639 347.553 233.639 352.008Z" fill="black" stroke="white" stroke-width="1.25891"/>
<path opacity="0.9666" d="M291.817 153.492H286.022C283.782 153.492 281.966 155.156 281.966 157.209V330.321C281.966 332.374 283.782 334.039 286.022 334.039H291.817C294.057 334.039 295.873 332.374 295.873 330.321V157.209C295.873 155.156 294.057 153.492 291.817 153.492Z" fill="black" stroke="white" stroke-width="1.10295"/>
<path opacity="0.9666" d="M116.998 154.537H111.319C109.123 154.537 107.344 156.201 107.344 158.254V331.377C107.344 333.43 109.123 335.094 111.319 335.094H116.998C119.193 335.094 120.973 333.43 120.973 331.377V158.254C120.973 156.201 119.193 154.537 116.998 154.537Z" fill="black" stroke="white" stroke-width="1.09192"/>
</svg>
